<svg width="24" height="24" viewBox="0 0 24 24" fill="none" xmlns="http://www.w3.org/2000/svg">
<path d="M21 19.5V20C21 20.5304 20.7893 21.0391 20.4142 21.4142C20.0391 21.7893 19.5304 22 19 22H7C6.46957 22 5.96086 21.7893 5.58579 21.4142C5.21071 21.0391 5 20.5304 5 20V4C5 3.46957 5.21071 2.96086 5.58579 2.58579C5.96086 2.21071 6.46957 2 7 2H15.5L19 5.5" stroke="black" stroke-width="2" stroke-linecap="round" stroke-linejoin="round"/>
<path d="M8 18H9" stroke="black" stroke-width="2" stroke-linecap="round" stroke-linejoin="round"/>
<path d="M18.42 9.60999C18.615 9.41498 18.8465 9.26029 19.1013 9.15475C19.3561 9.04921 19.6292 8.99489 19.905 8.99489C20.1808 8.99489 20.4539 9.04921 20.7087 9.15475C20.9635 9.26029 21.195 9.41498 21.39 9.60999C21.585 9.80501 21.7397 10.0365 21.8452 10.2913C21.9508 10.5461 22.0051 10.8192 22.0051 11.095C22.0051 11.3708 21.9508 11.6439 21.8452 11.8987C21.7397 12.1535 21.585 12.385 21.39 12.58L16.95 17L13 18L13.99 14.05L18.42 9.60999Z" stroke="black" stroke-width="2" stroke-linecap="round" stroke-linejoin="round"/>
</svg>
