<svg width="28" height="24" viewBox="0 0 28 24" fill="none" xmlns="http://www.w3.org/2000/svg">
<path d="M23.3337 12V8H7.00033C6.38149 8 5.78799 7.78929 5.35041 7.41421C4.91282 7.03914 4.66699 6.53043 4.66699 6C4.66699 4.9 5.71699 4 7.00033 4H21.0003V8" stroke="black" stroke-width="2" stroke-linecap="round" stroke-linejoin="round"/>
<path d="M4.66699 6V18C4.66699 19.1 5.71699 20 7.00033 20H23.3337V16" stroke="black" stroke-width="2" stroke-linecap="round" stroke-linejoin="round"/>
<path d="M21.0003 12C20.3815 12 19.788 12.2107 19.3504 12.5858C18.9128 12.9609 18.667 13.4696 18.667 14C18.667 15.1 19.717 16 21.0003 16H25.667V12H21.0003Z" stroke="black" stroke-width="2" stroke-linecap="round" stroke-linejoin="round"/>
</svg>
