<svg width="22" height="22" viewBox="0 0 22 22" fill="none" xmlns="http://www.w3.org/2000/svg">
<path d="M7.83 17.12L8.83 13H3C2.68951 13 2.38328 12.9277 2.10557 12.7889C1.82786 12.65 1.58629 12.4484 1.4 12.2C1.21371 11.9516 1.0878 11.6633 1.03226 11.3578C0.976718 11.0523 0.993063 10.7381 1.08 10.44L3.41 2.44C3.53117 2.02457 3.78381 1.65964 4.13 1.4C4.47619 1.14036 4.89726 1 5.33 1H18.83C19.3604 1 19.8691 1.21071 20.2442 1.58579C20.6193 1.96086 20.83 2.46957 20.83 3V11C20.83 11.5304 20.6193 12.0391 20.2442 12.4142C19.8691 12.7893 19.3604 13 18.83 13H16.07C15.6979 13.0002 15.3333 13.1042 15.017 13.3003C14.7008 13.4964 14.4456 13.7768 14.28 14.11L10.83 21C10.3584 20.9942 9.89426 20.8818 9.4722 20.6714C9.05013 20.461 8.68107 20.1579 8.3926 19.7848C8.10412 19.4117 7.90368 18.9782 7.80626 18.5168C7.70884 18.0554 7.71696 17.5779 7.83 17.12Z" stroke="black" stroke-width="2" stroke-linecap="round" stroke-linejoin="round"/>
</svg>
