<svg width="22" height="24" viewBox="0 0 22 24" fill="none" xmlns="http://www.w3.org/2000/svg">
<path d="M14 5.12218L13 9.49935H18.83C19.1405 9.49935 19.4467 9.57615 19.7244 9.72367C20.0021 9.8712 20.2437 10.0854 20.43 10.3493C20.6163 10.6132 20.7422 10.9195 20.7977 11.2441C20.8533 11.5686 20.8369 11.9025 20.75 12.2191L18.42 20.7185C18.2988 21.1599 18.0462 21.5476 17.7 21.8234C17.3538 22.0993 16.9327 22.2484 16.5 22.2484H3C2.46957 22.2484 1.96086 22.0245 1.58579 21.626C1.21071 21.2275 1 20.6871 1 20.1235V11.6242C1 11.0606 1.21071 10.5202 1.58579 10.1217C1.96086 9.72322 2.46957 9.49935 3 9.49935H5.76C6.13208 9.49914 6.49674 9.38866 6.81296 9.18033C7.12917 8.972 7.38442 8.67408 7.55 8.32007L11 1C11.4716 1.0062 11.9357 1.12555 12.3578 1.34911C12.7799 1.57267 13.1489 1.89467 13.4374 2.29105C13.7259 2.68744 13.9263 3.14796 14.0237 3.6382C14.1212 4.12844 14.113 4.63574 14 5.12218Z" stroke="#F6911D" stroke-width="2" stroke-linecap="round" stroke-linejoin="round"/>
</svg>
